<svg width="64" height="64" viewBox="0 0 64 64" fill="none" xmlns="http://www.w3.org/2000/svg">
<circle cx="32" cy="32" r="32" fill="#31F674"/>
<circle cx="31.7342" cy="31.7342" r="24.1152" fill="#212121"/>
<circle cx="31.9999" cy="31.5806" r="16.7619" fill="#31F674"/>
<path d="M26.242 32.28C25.094 32.28 24.156 31.916 23.428 31.188C22.7 30.46 22.336 29.459 22.336 28.185C22.336 27.331 22.504 26.596 22.84 25.98C23.176 25.364 23.638 24.895 24.226 24.573C24.828 24.251 25.5 24.09 26.242 24.09C26.984 24.09 27.649 24.251 28.237 24.573C28.839 24.895 29.308 25.364 29.644 25.98C29.98 26.596 30.148 27.331 30.148 28.185C30.148 29.459 29.784 30.46 29.056 31.188C28.328 31.916 27.39 32.28 26.242 32.28ZM34.873 24.3H38.422L28.384 39H24.835L34.873 24.3ZM26.242 30.012C26.508 30.012 26.725 29.872 26.893 29.592C27.075 29.298 27.166 28.829 27.166 28.185C27.166 27.541 27.075 27.079 26.893 26.799C26.725 26.505 26.508 26.358 26.242 26.358C25.976 26.358 25.752 26.505 25.57 26.799C25.402 27.079 25.318 27.541 25.318 28.185C25.318 28.829 25.402 29.298 25.57 29.592C25.752 29.872 25.976 30.012 26.242 30.012ZM37.015 39.21C35.867 39.21 34.929 38.846 34.201 38.118C33.473 37.39 33.109 36.389 33.109 35.115C33.109 34.261 33.277 33.526 33.613 32.91C33.949 32.294 34.411 31.825 34.999 31.503C35.601 31.181 36.273 31.02 37.015 31.02C37.757 31.02 38.422 31.181 39.01 31.503C39.612 31.825 40.081 32.294 40.417 32.91C40.753 33.526 40.921 34.261 40.921 35.115C40.921 36.389 40.557 37.39 39.829 38.118C39.101 38.846 38.163 39.21 37.015 39.21ZM37.015 36.942C37.281 36.942 37.498 36.802 37.666 36.522C37.848 36.228 37.939 35.759 37.939 35.115C37.939 34.471 37.848 34.009 37.666 33.729C37.498 33.435 37.281 33.288 37.015 33.288C36.749 33.288 36.525 33.435 36.343 33.729C36.175 34.009 36.091 34.471 36.091 35.115C36.091 35.759 36.175 36.228 36.343 36.522C36.525 36.802 36.749 36.942 37.015 36.942Z" fill="#212121"/>
</svg>
