<svg width="33" height="32" viewBox="0 0 33 32" fill="#000000" xmlns="http://www.w3.org/2000/svg">
<path d="M32.4115 10.8679C32.2521 10.7113 32.0293 10.637 31.8077 10.6667H23.1537V6.84274C23.1537 3.06358 20.0901 0 16.3109 0C12.5318 0 9.46819 3.06358 9.46819 6.84274V10.6667H0.813994C0.572461 10.6667 0.331005 10.6667 0.2102 10.8679C0.0479456 11.0238 -0.0273264 11.2496 0.00896133 11.4717L3.02785 27.9748C3.44959 30.277 5.43741 31.9616 7.77754 32H24.8442C27.191 31.9423 29.1747 30.2444 29.5939 27.9346L32.6128 11.4717C32.649 11.2496 32.5738 11.0238 32.4115 10.8679ZM11.0782 6.84274C11.0782 3.95282 13.4209 1.61007 16.3109 1.61007C19.2008 1.61007 21.5435 3.95282 21.5435 6.84274V10.6667H11.0782V6.84274ZM27.9838 27.7333C27.7127 29.2589 26.3935 30.3751 24.8442 30.3899H7.77754C6.22818 30.3751 4.90904 29.2589 4.63792 27.7333L1.78005 12.2767H30.8417L27.9838 27.7333Z" fill="#000000"/>
</svg>
