<svg width="107" height="80" viewBox="0 0 107 80" fill="none" xmlns="http://www.w3.org/2000/svg">
<path d="M82.3288 76.4204C81.6249 77.1319 81.6249 78.282 82.3288 78.9935C82.6798 79.3483 83.1406 79.5267 83.6014 79.5267C84.0622 79.5267 84.523 79.3483 84.8741 78.9935L106.473 57.1586C106.64 56.9912 106.772 56.7892 106.864 56.5654C107.045 56.1213 107.045 55.6209 106.864 55.1751C106.772 54.9513 106.639 54.7493 106.473 54.58L84.8741 32.747C84.1702 32.0355 83.0326 32.0355 82.3288 32.747C81.6249 33.4585 81.6249 34.6085 82.3288 35.3201L100.857 54.0505H45.8001C44.8046 54.0505 44 54.8639 44 55.8702C44 56.8765 44.8046 57.69 45.8001 57.69H100.857L82.3288 76.4204Z" fill="black"/>
<path d="M24.6712 3.10627C25.3751 2.39476 25.3751 1.24469 24.6712 0.533176C24.3202 0.178329 23.8594 -4.1848e-06 23.3986 -4.14425e-06C22.9378 -4.10369e-06 22.4769 0.178329 22.1259 0.533176L0.526964 22.3681C0.359556 22.5355 0.228155 22.7375 0.13635 22.9613C-0.0454542 23.4053 -0.0454542 23.9057 0.136351 24.3516C0.228155 24.5754 0.361357 24.7774 0.526964 24.9466L22.1259 46.7797C22.8298 47.4912 23.9674 47.4912 24.6712 46.7797C25.3751 46.0682 25.3751 44.9181 24.6712 44.2066L6.14317 25.4762L61.1999 25.4762C62.1954 25.4762 63 24.6627 63 23.6564C63 22.6501 62.1954 21.8367 61.1999 21.8367L6.14317 21.8367L24.6712 3.10627Z" fill="black"/>
</svg>
