<svg width="28" height="27" viewBox="0 0 28 27" fill="none" xmlns="http://www.w3.org/2000/svg">
<path d="M27.6492 13.1734C28.1568 12.6174 28.1077 11.7652 27.5398 11.2704L15.0262 0.364354C14.4582 -0.130385 13.5476 -0.120022 12.9916 0.387718L0.435479 11.8519C-0.120553 12.3596 -0.147843 13.2108 0.375057 13.7521L0.689856 14.0787C1.21212 14.6201 2.0563 14.6846 2.57418 14.2224L3.51255 13.3854V25.6395C3.51255 26.3913 4.12417 27 4.87844 27H9.77284C10.5271 27 11.1387 26.3913 11.1387 25.6395V17.0666H17.3816V25.6395C17.3707 26.3908 17.9104 26.9995 18.6647 26.9995H23.8515C24.6058 26.9995 25.2174 26.3908 25.2174 25.639V13.5579C25.2174 13.5579 25.4766 13.7841 25.7964 14.0641C26.1155 14.3434 26.7859 14.1194 27.2935 13.5629L27.6492 13.1734Z" fill="#010002"/>
</svg>
