<svg width="108" height="80" viewBox="0 0 108 80" fill="none" xmlns="http://www.w3.org/2000/svg">
<path fill-rule="evenodd" clip-rule="evenodd" d="M28 6.71111L28 52.6822C28 56.3827 30.9907 59.3933 34.6667 59.3933L101.333 59.3933C105.009 59.3933 108 56.3827 108 52.6822L108 34.5622C108 33.821 107.403 33.22 106.667 33.22L37 33.22C36.2637 33.22 35.6667 33.821 35.6667 34.5622C35.6667 35.3035 36.2637 35.9044 37 35.9044L105.333 35.9044L105.333 44.6289L37 44.6289C36.2637 44.6289 35.6667 45.2299 35.6667 45.9711C35.6667 46.7124 36.2637 47.3133 37 47.3133L105.333 47.3133L105.333 52.6822C105.333 54.9024 103.539 56.7089 101.333 56.7089C77.5 56.7089 60.7016 56.7089 34.6667 56.7089C32.4612 56.7089 30.6667 54.9024 30.6667 52.6822L30.6667 6.71111C30.6667 4.4909 32.4612 2.68444 34.6667 2.68444L101.333 2.68444C103.539 2.68444 105.333 4.4909 105.333 6.7111L105.333 26.8444C105.333 27.5857 105.93 28.1867 106.667 28.1867C107.403 28.1867 108 27.5857 108 26.8444L108 6.7111C108 3.01059 105.009 -6.88936e-06 101.333 -6.56585e-06L34.6667 -6.98814e-07C30.9907 -3.75305e-07 28 3.0106 28 6.71111ZM45.7866 18.6233C45.7996 18.9295 45.825 19.2359 45.8628 19.5407C45.8128 19.2119 45.7866 18.9025 45.7866 18.6233Z" fill="black"/>
<rect x="23" y="22.1467" width="57" height="39.26" fill="#F1F1F1"/>
<path d="M80 26.8444V72.8156C80 76.5161 77.0093 79.5267 73.3333 79.5267H6.66667C2.99067 79.5267 0 76.5161 0 72.8156V52.6822C0 51.941 0.597 51.34 1.33333 51.34C2.06967 51.34 2.66667 51.941 2.66667 52.6822V72.8156C2.66667 75.0358 4.46117 76.8422 6.66667 76.8422H73.3333C75.5388 76.8422 77.3333 75.0358 77.3333 72.8156V26.8444C77.3333 24.6242 75.5388 22.8178 73.3333 22.8178H6.66667C4.46117 22.8178 2.66667 24.6242 2.66667 26.8444V32.2133H71C71.7363 32.2133 72.3333 32.8143 72.3333 33.5556C72.3333 34.2968 71.7363 34.8978 71 34.8978H2.66667V43.6222H71C71.7363 43.6222 72.3333 44.2232 72.3333 44.9644C72.3333 45.7057 71.7363 46.3067 71 46.3067H1.33333C0.597 46.3067 0 45.7057 0 44.9644V26.8444C0 23.1439 2.99067 20.1333 6.66667 20.1333H73.3333C77.0093 20.1333 80 23.1439 80 26.8444ZM69.3333 61.7422C69.3333 58.2966 65.5283 56.2069 62.6458 58.0818C65.4743 62.746 62.1263 68.7889 56.6667 68.7889C52.8068 68.7889 49.6667 65.6278 49.6667 61.7422C49.6667 55.9594 56.2397 52.647 60.8333 56.0837C65.4475 52.6478 72 55.9702 72 61.7422C72 65.6278 68.8598 68.7889 65 68.7889C64.2637 68.7889 63.6667 68.1879 63.6667 67.4467C63.6667 66.7054 64.2637 66.1044 65 66.1044C67.3895 66.1044 69.3333 64.1477 69.3333 61.7422ZM61 61.7422C61 59.3368 59.0562 57.38 56.6667 57.38C54.2772 57.38 52.3333 59.3368 52.3333 61.7422C52.3333 64.1477 54.2772 66.1044 56.6667 66.1044C59.0562 66.1044 61 64.1477 61 61.7422ZM12.1667 58.89H23.3333C24.0697 58.89 24.6667 58.289 24.6667 57.5478C24.6667 56.8065 24.0697 56.2056 23.3333 56.2056H12.1667C11.4303 56.2056 10.8333 56.8065 10.8333 57.5478C10.8333 58.289 11.4303 58.89 12.1667 58.89ZM12.1667 67.2789H23.3333C24.0697 67.2789 24.6667 66.6779 24.6667 65.9367C24.6667 65.1954 24.0697 64.5944 23.3333 64.5944H12.1667C11.4303 64.5944 10.8333 65.1954 10.8333 65.9367C10.8333 66.6779 11.4303 67.2789 12.1667 67.2789Z" fill="black"/>
</svg>
