<svg width="29" height="29" viewBox="0 0 29 29" fill="none" xmlns="http://www.w3.org/2000/svg">
<path d="M12.5227 3.625C10.7629 3.625 9.04261 4.14684 7.5794 5.12453C6.11618 6.10222 4.97574 7.49184 4.3023 9.11768C3.62886 10.7435 3.45265 12.5325 3.79597 14.2585C4.13929 15.9845 4.98671 17.5699 6.23107 18.8143C7.47544 20.0586 9.06085 20.9061 10.7868 21.2494C12.5128 21.5927 14.3018 21.4165 15.9277 20.7431C17.5535 20.0696 18.9431 18.9292 19.9208 17.466C20.8985 16.0027 21.4204 14.2825 21.4204 12.5227C21.4202 10.1629 20.4827 7.89984 18.8141 6.23123C17.1455 4.56263 14.8824 3.62515 12.5227 3.625V3.625Z" stroke="white" stroke-width="2" stroke-miterlimit="10"/>
<path d="M19.1609 19.1609L25.375 25.375" stroke="white" stroke-width="2" stroke-miterlimit="10" stroke-linecap="round"/>
</svg>
