<svg width="79" height="80" viewBox="0 0 79 80" fill="none" xmlns="http://www.w3.org/2000/svg">
<path d="M47.4256 27.2599L31.5986 43.1924L23.2197 34.7576L21.358 36.6317L30.6678 46.0035C30.9147 46.252 31.2495 46.3916 31.5986 46.3916C31.9477 46.3916 32.2826 46.252 32.5295 46.0035L49.2873 29.134L47.4256 27.2599Z" fill="black"/>
<path d="M75.0467 53.0188H73.7301V49.0426C73.7284 47.2112 73.1888 45.4212 72.1791 43.8977C71.1694 42.3743 69.7347 41.1854 68.0555 40.4806C68.3161 38.85 68.4526 37.2017 68.4637 35.5502V11.9318C68.4653 11.65 68.3764 11.3752 68.2104 11.1483C68.0443 10.9215 67.8099 10.7546 67.542 10.6727L34.6268 0.0696157C34.3716 -0.0232052 34.0921 -0.0232052 33.8369 0.0696157L0.921647 10.6727C0.653796 10.7546 0.419392 10.9215 0.253329 11.1483C0.0872647 11.3752 -0.00157942 11.65 2.12555e-05 11.9318V35.5502C-0.00516295 40.386 1.04386 45.1641 3.07308 49.5473C5.10229 53.9305 8.06227 57.812 11.7442 60.9181L33.3892 79.2217C33.6263 79.4188 33.9243 79.5267 34.2318 79.5267C34.5394 79.5267 34.8373 79.4188 35.0745 79.2217L44.7647 71.0308V75.5503C44.7678 76.6039 45.185 77.6134 45.925 78.3584C46.6651 79.1034 47.6679 79.5233 48.7145 79.5265H75.0467C76.0933 79.5233 77.0961 79.1034 77.8362 78.3584C78.5763 77.6134 78.9934 76.6039 78.9965 75.5503V56.9949C78.9934 55.9414 78.5763 54.9318 77.8362 54.1868C77.0961 53.4419 76.0933 53.0219 75.0467 53.0188ZM71.0969 49.0426V53.0188H68.4637V49.0426C68.4605 47.989 68.0434 46.9795 67.3033 46.2345C66.5633 45.4895 65.5604 45.0696 64.5138 45.0665H59.2474C58.2008 45.0696 57.198 45.4895 56.4579 46.2345C55.7178 46.9795 55.3007 47.989 55.2976 49.0426V53.0188H52.6644V49.0426C52.6644 47.285 53.3579 45.5995 54.5925 44.3567C55.827 43.1139 57.5015 42.4157 59.2474 42.4157H64.5138C66.2598 42.4157 67.9342 43.1139 69.1687 44.3567C70.4033 45.5995 71.0969 47.285 71.0969 49.0426ZM65.8304 49.0426V53.0188H57.9308V49.0426C57.9308 48.6911 58.0695 48.354 58.3164 48.1054C58.5633 47.8569 58.8982 47.7172 59.2474 47.7172H64.5138C64.863 47.7172 65.1979 47.8569 65.4448 48.1054C65.6917 48.354 65.8304 48.6911 65.8304 49.0426ZM44.7647 56.9949V67.5583L34.2318 76.4649L13.4294 58.877C10.0437 56.0211 7.32207 52.4518 5.4566 48.4212C3.59113 44.3905 2.62733 39.9968 2.63324 35.5502V12.8994L34.2318 2.72039L65.8304 12.8994V35.5502C65.819 36.9787 65.709 38.4047 65.5013 39.8179C65.1735 39.7805 64.8437 39.7628 64.5138 39.7649H59.2474C56.804 39.7677 54.4614 40.7461 52.7336 42.4854C51.0058 44.2247 50.0339 46.5829 50.0311 49.0426V53.0188H48.7145C47.6679 53.0219 46.6651 53.4419 45.925 54.1868C45.185 54.9318 44.7678 55.9414 44.7647 56.9949ZM76.3633 75.5503C76.3633 75.9019 76.2246 76.239 75.9777 76.4875C75.7308 76.7361 75.3959 76.8757 75.0467 76.8757H48.7145C48.3653 76.8757 48.0305 76.7361 47.7835 76.4875C47.5366 76.239 47.3979 75.9019 47.3979 75.5503V56.9949C47.3979 56.6434 47.5366 56.3063 47.7835 56.0577C48.0305 55.8092 48.3653 55.6696 48.7145 55.6696H75.0467C75.3959 55.6696 75.7308 55.8092 75.9777 56.0577C76.2246 56.3063 76.3633 56.6434 76.3633 56.9949V75.5503Z" fill="black"/>
<path d="M67.467 59.6855L62.2005 58.3601C61.9905 58.3071 61.7707 58.3071 61.5607 58.3601L56.2942 59.6855C56.0095 59.7573 55.7568 59.9228 55.5762 60.1557C55.3957 60.3886 55.2976 60.6756 55.2976 60.9711V65.4019C55.2951 66.2723 55.4642 67.1346 55.7951 67.9389C56.126 68.7431 56.612 69.4733 57.2251 70.0871L60.9498 73.8366C61.1967 74.0851 61.5315 74.2247 61.8806 74.2247C62.2297 74.2247 62.5646 74.0851 62.8115 73.8366L66.5361 70.0871C67.1492 69.4733 67.6353 68.7431 67.9661 67.9389C68.297 67.1346 68.4661 66.2723 68.4637 65.4019V60.9711C68.4636 60.6756 68.3656 60.3886 68.185 60.1557C68.0044 59.9228 67.7517 59.7573 67.467 59.6855ZM65.8304 65.4019C65.8277 66.4555 65.4123 67.4656 64.6745 68.213L61.8806 71.0255L59.0868 68.213C58.3489 67.4656 57.9335 66.4555 57.9308 65.4019V62.0062L61.8806 61.0122L65.8304 62.0062V65.4019Z" fill="black"/>
</svg>
