<svg width="29" height="33" viewBox="0 0 29 33" fill="none" xmlns="http://www.w3.org/2000/svg">
<path d="M20.7315 16.788L20.7315 16.7879C20.8078 16.6038 20.8076 16.3966 20.7316 16.2123L20.7315 16.2119C20.6933 16.1199 20.6379 16.0367 20.5688 15.9668L20.568 15.9661L13.9257 9.32432C13.9257 9.32432 13.9257 9.32432 13.9257 9.32431C13.6312 9.02977 13.1547 9.02977 12.8601 9.32432C12.5656 9.61887 12.5656 10.0954 12.8601 10.3899L18.2166 15.7464H1.76793C1.35134 15.7464 1.01436 16.0834 1.01436 16.5C1.01436 16.9166 1.35135 17.2535 1.76793 17.2535H18.2166L12.8601 22.61C12.5656 22.9046 12.5656 23.3811 12.8601 23.6756C13.007 23.8225 13.2002 23.8964 13.3929 23.8964C13.5856 23.8964 13.7789 23.8225 13.9257 23.6756L20.5673 17.0341C20.5674 17.0339 20.5676 17.0338 20.5677 17.0336C20.6391 16.9629 20.6938 16.879 20.7315 16.788Z" fill="#474747" stroke="#474747" stroke-width="0.4"/>
<path d="M27.2322 0.8H6.75004C6.33346 0.8 5.99647 1.13699 5.99647 1.55357V13.1786C5.99647 13.5952 6.33346 13.9321 6.75004 13.9321C7.16663 13.9321 7.50361 13.5952 7.50361 13.1786V2.30714H26.4786V30.6929H7.50361V19.8214C7.50361 19.4048 7.16663 19.0679 6.75004 19.0679C6.33346 19.0679 5.99647 19.4048 5.99647 19.8214V31.4464C5.99647 31.863 6.33346 32.2 6.75004 32.2H27.2322C27.6488 32.2 27.9858 31.863 27.9858 31.4464V1.55357C27.9858 1.13699 27.6488 0.8 27.2322 0.8Z" fill="#474747" stroke="#474747" stroke-width="0.4"/>
</svg>
