<svg width="35" height="35" viewBox="0 0 35 35" fill="none" xmlns="http://www.w3.org/2000/svg">
<path fill-rule="evenodd" clip-rule="evenodd" d="M29.9007 5.08601C28.2828 3.46731 26.3607 2.18462 24.2451 1.31176C22.1294 0.4389 19.862 -0.00688 17.5734 8.02651e-05C7.96874 8.02651e-05 0.15 7.77975 0.146093 17.3438C0.141845 20.3892 0.944604 23.3813 2.47265 26.0156L0 35L9.23827 32.5883C11.7955 33.9736 14.658 34.6987 17.5664 34.6977H17.5734C27.1773 34.6977 34.9953 26.9172 34.9999 17.3539C35.0058 15.0731 34.5579 12.8139 33.6825 10.7078C32.8071 8.60169 31.5216 6.69069 29.9007 5.08601ZM17.5734 31.7703H17.5672C14.9745 31.7711 12.429 31.0772 10.1953 29.761L9.66639 29.4485L4.18437 30.8797L5.64765 25.5602L5.30312 25.0133C3.85342 22.7181 3.08535 20.0585 3.08828 17.3438C3.08828 9.39615 9.58905 2.92976 17.5789 2.92976C21.4117 2.92292 25.0902 4.43877 27.8055 7.14391C30.5208 9.84905 32.0503 13.5219 32.0578 17.3547C32.0546 25.3031 25.557 31.7703 17.5734 31.7703ZM25.5179 20.9743C25.0828 20.7571 22.9398 19.7086 22.5429 19.5641C22.1461 19.4196 21.8531 19.3469 21.5632 19.7813C21.2734 20.2157 20.4382 21.1875 20.1843 21.4805C19.9304 21.7735 19.6765 21.8055 19.2414 21.5883C18.8062 21.3711 17.4023 20.9141 15.739 19.4375C14.4445 18.2883 13.5711 16.8696 13.3172 16.436C13.0633 16.0024 13.2898 15.7672 13.5078 15.5516C13.7039 15.3571 13.9429 15.0454 14.1609 14.7922C14.3789 14.5391 14.4515 14.3579 14.5961 14.0688C14.7406 13.7797 14.6687 13.5266 14.5601 13.3102C14.4515 13.0938 13.5804 10.9602 13.2179 10.0922C12.864 9.24693 12.5054 9.36178 12.2383 9.3485C11.9844 9.336 11.6914 9.33287 11.4031 9.33287C11.1827 9.33861 10.9659 9.38972 10.7661 9.483C10.5664 9.57629 10.388 9.70975 10.2422 9.87506C9.84295 10.3094 8.71796 11.3594 8.71796 13.4907C8.71796 15.6219 10.2805 17.6844 10.4961 17.9735C10.7117 18.2625 13.5664 22.6399 17.9343 24.5172C18.7454 24.8646 19.5742 25.1691 20.4172 25.4297C21.4601 25.7594 22.4093 25.7133 23.1593 25.6016C23.9961 25.4774 25.7375 24.5532 26.0992 23.5407C26.4609 22.5282 26.4617 21.661 26.3531 21.4805C26.2445 21.3 25.9539 21.1907 25.5179 20.9743Z" fill="white"/>
</svg>
